<?xml version="1.0" encoding="utf-8"?>
<!-- Generator: Adobe Illustrator 26.5.0, SVG Export Plug-In . SVG Version: 6.00 Build 0)  -->
<svg version="1.1" id="Layer_1" xmlns="http://www.w3.org/2000/svg" xmlns:xlink="http://www.w3.org/1999/xlink" x="0px" y="0px"
	 viewBox="0 0 80.6 24.7" style="enable-background:new 0 0 80.6 24.7;" xml:space="preserve">
<style type="text/css">
	.st0{fill:#F7F7F7;}
</style>
<g>
	<g>
		<path class="st0" d="M2.9,23.8v-3h0.2L5,22.7v-1.9h0.6v3H5.4l-1.9-1.9v1.9C3.5,23.8,2.9,23.8,2.9,23.8z"/>
		<path class="st0" d="M6.2,22c0.3-0.2,0.6-0.2,0.9-0.2c0.2,0,0.4,0.1,0.6,0.2s0.2,0.3,0.2,0.6v1.2H7.4v-0.2
			c-0.2,0.1-0.3,0.2-0.4,0.2c-0.3,0-0.5-0.1-0.6-0.2s-0.2-0.3-0.2-0.5s0.1-0.4,0.2-0.5s0.3-0.2,0.6-0.2c0.1,0,0.3,0,0.4,0.1v-0.1
			c0-0.1-0.1-0.2-0.3-0.2c-0.2,0-0.4,0-0.6,0.1L6.2,22z M7.4,23.2V23c-0.1-0.1-0.2-0.2-0.4-0.2c-0.2,0-0.4,0.1-0.4,0.3
			c0,0.2,0.1,0.2,0.4,0.3C7.2,23.4,7.3,23.3,7.4,23.2z"/>
		<path class="st0" d="M9.3,23.8c-0.2,0-0.4-0.1-0.5-0.2s-0.2-0.3-0.2-0.5v-0.9H8.3v-0.5h0.3v-0.5l0.6-0.1v0.6h0.3v0.5H9.2V23
			c0,0.1,0,0.2,0.1,0.2c0,0,0.1,0.1,0.2,0.1c0,0,0.1,0,0.2,0l0.1,0.4C9.6,23.8,9.5,23.8,9.3,23.8z"/>
		<path class="st0" d="M10.1,21.1c0.1-0.1,0.1-0.1,0.2-0.1c0.1,0,0.2,0,0.2,0.1c0.1,0.1,0.1,0.1,0.1,0.2s0,0.1-0.1,0.2
			s-0.1,0.1-0.2,0.1c-0.1,0-0.2,0-0.2-0.1c-0.1,0-0.1-0.1-0.1-0.2C10,21.2,10,21.2,10.1,21.1z M10.6,23.8v-2H10v2H10.6z"/>
		<path class="st0" d="M11.2,23.5c-0.2-0.2-0.3-0.4-0.3-0.7c0-0.3,0.1-0.5,0.3-0.7s0.4-0.3,0.7-0.3s0.5,0.1,0.7,0.3
			c0.2,0.2,0.3,0.4,0.3,0.7c0,0.3-0.1,0.5-0.3,0.7s-0.4,0.3-0.7,0.3C11.7,23.8,11.4,23.7,11.2,23.5z M12,23.3c0.2,0,0.3-0.1,0.4-0.2
			c0.1-0.1,0.1-0.2,0.1-0.4c0-0.2,0-0.3-0.1-0.4s-0.2-0.2-0.4-0.2s-0.3,0.1-0.4,0.2c-0.1,0.1-0.1,0.2-0.1,0.4c0,0.2,0,0.3,0.1,0.4
			C11.7,23.3,11.8,23.3,12,23.3z"/>
		<path class="st0" d="M14,22.5v1.3h-0.6v-2l0.6-0.1V22c0.1-0.1,0.3-0.2,0.5-0.2c0.3,0,0.5,0.1,0.6,0.2c0.1,0.2,0.2,0.3,0.2,0.5v1.3
			h-0.6v-1.1c0-0.1,0-0.2-0.1-0.3c-0.1-0.1-0.2-0.1-0.3-0.1C14.1,22.3,14,22.4,14,22.5z"/>
		<path class="st0" d="M15.8,22c0.3-0.2,0.6-0.2,0.9-0.2c0.2,0,0.4,0.1,0.6,0.2s0.2,0.3,0.2,0.6v1.2h-0.6v-0.2
			c-0.2,0.1-0.3,0.2-0.4,0.2c-0.3,0-0.5-0.1-0.6-0.2s-0.2-0.3-0.2-0.5s0.1-0.4,0.2-0.5c0.1-0.1,0.3-0.2,0.6-0.2c0.1,0,0.3,0,0.4,0.1
			v-0.1c0-0.1-0.1-0.2-0.3-0.2c-0.2,0-0.4,0-0.6,0.1L15.8,22z M16.9,23.2V23c-0.1-0.1-0.2-0.2-0.4-0.2c-0.2,0-0.4,0.1-0.4,0.3
			c0,0.2,0.1,0.2,0.4,0.3C16.7,23.4,16.8,23.3,16.9,23.2z"/>
		<path class="st0" d="M17.9,23.8v-3h0.6v3H17.9z"/>
		<path class="st0" d="M20.6,23.8v-3h0.2l1.3,1.5l1.3-1.5h0.2v3H23V22l-0.9,1l-0.9-1v1.8H20.6z"/>
		<path class="st0" d="M24.2,21.1c0.1-0.1,0.1-0.1,0.2-0.1s0.2,0,0.2,0.1c0.1,0.1,0.1,0.1,0.1,0.2s0,0.1-0.1,0.2s-0.1,0.1-0.2,0.1
			s-0.2,0-0.2-0.1c-0.1-0.1-0.1-0.1-0.1-0.2S24.1,21.2,24.2,21.1z M24.7,23.8v-2h-0.6v2H24.7z"/>
		<path class="st0" d="M25.4,23.6c-0.2-0.2-0.3-0.4-0.3-0.7v-0.2c0-0.3,0.1-0.5,0.3-0.7c0.2-0.2,0.4-0.3,0.7-0.3
			c0.3,0,0.6,0.1,0.8,0.3l-0.4,0.3c-0.1-0.1-0.3-0.2-0.4-0.2s-0.3,0.1-0.4,0.2s-0.2,0.2-0.2,0.4c0,0.1,0,0.3,0.1,0.4
			s0.2,0.2,0.4,0.2s0.3-0.1,0.4-0.2l0.4,0.3c-0.2,0.2-0.5,0.3-0.8,0.3C25.8,23.8,25.6,23.7,25.4,23.6z"/>
		<path class="st0" d="M27.8,22c0.1-0.1,0.3-0.2,0.5-0.2c0.1,0,0.1,0,0.2,0l-0.1,0.6c-0.1-0.1-0.2-0.1-0.3-0.1
			c-0.1,0-0.3,0.1-0.3,0.3v1.2h-0.6v-2l0.6-0.1C27.8,21.7,27.8,22,27.8,22z"/>
		<path class="st0" d="M29.1,23.5c-0.2-0.2-0.3-0.4-0.3-0.7c0-0.3,0.1-0.5,0.3-0.7c0.2-0.2,0.4-0.3,0.7-0.3c0.3,0,0.5,0.1,0.7,0.3
			c0.2,0.2,0.3,0.4,0.3,0.7c0,0.3-0.1,0.5-0.3,0.7c-0.2,0.2-0.4,0.3-0.7,0.3S29.3,23.7,29.1,23.5z M29.8,23.3c0.2,0,0.3-0.1,0.4-0.2
			s0.1-0.2,0.1-0.4c0-0.2,0-0.3-0.1-0.4s-0.2-0.2-0.4-0.2c-0.2,0-0.3,0.1-0.4,0.2s-0.1,0.2-0.1,0.4c0,0.2,0,0.3,0.1,0.4
			S29.7,23.3,29.8,23.3z"/>
		<path class="st0" d="M32.4,21.8c0.1,0,0.2,0.1,0.3,0.2l-0.3,0.4c-0.1-0.1-0.2-0.2-0.3-0.2s-0.2,0-0.3,0.1c0,0.1,0,0.1,0,0.1
			s0.1,0.1,0.3,0.1c0.2,0,0.4,0.1,0.5,0.2s0.2,0.3,0.2,0.5s-0.1,0.3-0.2,0.4s-0.3,0.2-0.5,0.2s-0.4,0-0.5-0.1s-0.2-0.1-0.3-0.2
			l0.3-0.4c0.1,0.1,0.2,0.2,0.4,0.2s0.3,0,0.3-0.1s0.1-0.1,0-0.2c0-0.1-0.1-0.1-0.3-0.1s-0.3-0.1-0.5-0.2c-0.1-0.1-0.2-0.2-0.2-0.5
			c0-0.2,0.1-0.4,0.2-0.5c0.2-0.1,0.3-0.2,0.5-0.2C32.1,21.8,32.3,21.8,32.4,21.8z"/>
		<path class="st0" d="M33.3,23.5c-0.2-0.2-0.3-0.4-0.3-0.7c0-0.3,0.1-0.5,0.3-0.7s0.4-0.3,0.7-0.3s0.5,0.1,0.7,0.3
			c0.2,0.2,0.3,0.4,0.3,0.7c0,0.3-0.1,0.5-0.3,0.7s-0.4,0.3-0.7,0.3C33.8,23.8,33.5,23.7,33.3,23.5z M34,23.3c0.2,0,0.3-0.1,0.4-0.2
			s0.1-0.2,0.1-0.4c0-0.2,0-0.3-0.1-0.4s-0.2-0.2-0.4-0.2s-0.3,0.1-0.4,0.2c-0.1,0.1-0.1,0.2-0.1,0.4c0,0.2,0,0.3,0.1,0.4
			S33.9,23.3,34,23.3z"/>
		<path class="st0" d="M35.6,23.8v-1.6h-0.3v-0.5h0.3v-0.3c0-0.2,0.1-0.4,0.2-0.5c0.1-0.1,0.3-0.2,0.5-0.2s0.4,0.1,0.6,0.2l-0.3,0.3
			c0,0-0.1-0.1-0.2-0.1c-0.1,0-0.1,0-0.2,0.1c0,0-0.1,0.1-0.1,0.2v0.2h0.3v0.5h-0.3v1.6L35.6,23.8L35.6,23.8z"/>
		<path class="st0" d="M37.9,23.8c-0.2,0-0.4-0.1-0.5-0.2s-0.2-0.3-0.2-0.5v-0.9h-0.3v-0.5h0.3v-0.5l0.6-0.1v0.6h0.3v0.5h-0.3V23
			c0,0.1,0,0.2,0.1,0.2c0,0,0.1,0.1,0.2,0.1c0,0,0.1,0,0.2,0l0.1,0.4C38.2,23.8,38.1,23.8,37.9,23.8z"/>
		<path class="st0" d="M42.5,20.8v0.6h-1v2.5h-0.6v-2.5h-1v-0.6H42.5z"/>
		<path class="st0" d="M42.8,22.8c0-0.3,0.1-0.5,0.3-0.7s0.4-0.3,0.7-0.3s0.5,0.1,0.7,0.3c0.2,0.2,0.3,0.4,0.3,0.7V23h-1.4
			c0,0.1,0.1,0.2,0.1,0.3s0.2,0.1,0.3,0.1c0.2,0,0.4-0.1,0.5-0.2l0.3,0.3c-0.1,0.2-0.4,0.3-0.8,0.3c-0.3,0-0.5-0.1-0.7-0.3
			S42.8,23.1,42.8,22.8z M44.1,22.3c-0.1-0.1-0.2-0.1-0.3-0.1s-0.2,0-0.3,0.1s-0.1,0.1-0.1,0.3h0.8C44.3,22.5,44.2,22.4,44.1,22.3z"
			/>
		<path class="st0" d="M45.5,23.6c-0.2-0.2-0.3-0.4-0.3-0.7v-0.2c0-0.3,0.1-0.5,0.3-0.7s0.4-0.3,0.7-0.3s0.6,0.1,0.8,0.3l-0.4,0.3
			c-0.1-0.1-0.3-0.2-0.4-0.2c-0.1,0-0.3,0.1-0.4,0.2c-0.1,0.1-0.2,0.2-0.2,0.4c0,0.1,0,0.3,0.1,0.4s0.2,0.2,0.4,0.2
			c0.1,0,0.3-0.1,0.4-0.2l0.4,0.3c-0.2,0.2-0.5,0.3-0.8,0.3C45.9,23.8,45.7,23.7,45.5,23.6z"/>
		<path class="st0" d="M47.9,22.4v1.4h-0.6v-3h0.6V22c0.1-0.1,0.3-0.2,0.5-0.2c0.3,0,0.5,0.1,0.6,0.2c0.1,0.2,0.2,0.3,0.2,0.5v1.3
			h-0.6v-1.1c0-0.1,0-0.2-0.1-0.3c-0.1-0.1-0.2-0.1-0.3-0.1C48.1,22.3,48,22.3,47.9,22.4z"/>
		<path class="st0" d="M50.2,22.5v1.3h-0.6v-2l0.6-0.1V22c0.1-0.1,0.3-0.2,0.5-0.2c0.3,0,0.5,0.1,0.6,0.2c0.1,0.2,0.2,0.3,0.2,0.5
			v1.3h-0.6v-1.1c0-0.1,0-0.2-0.1-0.3c-0.1-0.1-0.2-0.1-0.3-0.1C50.4,22.3,50.3,22.4,50.2,22.5z"/>
		<path class="st0" d="M52.1,23.5c-0.2-0.2-0.3-0.4-0.3-0.7c0-0.3,0.1-0.5,0.3-0.7s0.4-0.3,0.7-0.3s0.5,0.1,0.7,0.3
			c0.2,0.2,0.3,0.4,0.3,0.7c0,0.3-0.1,0.5-0.3,0.7s-0.4,0.3-0.7,0.3S52.3,23.7,52.1,23.5z M52.8,23.3c0.2,0,0.3-0.1,0.4-0.2
			c0.1-0.1,0.1-0.2,0.1-0.4c0-0.2,0-0.3-0.1-0.4s-0.2-0.2-0.4-0.2s-0.3,0.1-0.4,0.2c-0.1,0.1-0.1,0.2-0.1,0.4c0,0.2,0,0.3,0.1,0.4
			S52.7,23.3,52.8,23.3z"/>
		<path class="st0" d="M54.2,23.8v-3h0.6v3H54.2z"/>
		<path class="st0" d="M55.6,23.5c-0.2-0.2-0.3-0.4-0.3-0.7c0-0.3,0.1-0.5,0.3-0.7s0.4-0.3,0.7-0.3s0.5,0.1,0.7,0.3
			c0.2,0.2,0.3,0.4,0.3,0.7c0,0.3-0.1,0.5-0.3,0.7s-0.4,0.3-0.7,0.3S55.8,23.7,55.6,23.5z M56.3,23.3c0.2,0,0.3-0.1,0.4-0.2
			c0.1-0.1,0.1-0.2,0.1-0.4c0-0.2,0-0.3-0.1-0.4s-0.2-0.2-0.4-0.2s-0.3,0.1-0.4,0.2c-0.1,0.1-0.1,0.2-0.1,0.4c0,0.2,0,0.3,0.1,0.4
			S56.2,23.3,56.3,23.3z"/>
		<path class="st0" d="M59.6,21.8v1.8c0,0.3-0.1,0.5-0.3,0.7s-0.4,0.3-0.6,0.3h-0.1c-0.4,0-0.7-0.1-0.9-0.3L58,24
			c0.1,0.1,0.3,0.2,0.5,0.2s0.4-0.1,0.4-0.2c0.1-0.1,0.1-0.2,0.1-0.3v-0.1c-0.2,0.1-0.3,0.2-0.5,0.2c-0.3,0-0.5-0.1-0.7-0.3
			c-0.2-0.2-0.2-0.4-0.2-0.7c0-0.3,0.1-0.5,0.3-0.7s0.4-0.3,0.7-0.3c0.2,0,0.4,0.1,0.5,0.2v-0.2L59.6,21.8z M59.1,23v-0.3
			c0-0.2-0.2-0.4-0.4-0.4c-0.3,0-0.5,0.2-0.5,0.5c0,0.4,0.2,0.6,0.5,0.6C58.9,23.3,59,23.2,59.1,23z"/>
		<path class="st0" d="M60.1,21.1c0.1-0.1,0.1-0.1,0.2-0.1c0.1,0,0.2,0,0.2,0.1c0.1,0.1,0.1,0.1,0.1,0.2s0,0.1-0.1,0.2
			s-0.1,0.1-0.2,0.1c-0.1,0-0.2,0-0.2-0.1C60,21.4,60,21.4,60,21.3S60.1,21.2,60.1,21.1z M60.6,23.8v-2H60v2H60.6z"/>
		<path class="st0" d="M61,22.8c0-0.3,0.1-0.5,0.3-0.7s0.4-0.3,0.7-0.3s0.5,0.1,0.7,0.3c0.2,0.2,0.3,0.4,0.3,0.7V23h-1.4
			c0,0.1,0.1,0.2,0.1,0.3s0.2,0.1,0.3,0.1c0.2,0,0.4-0.1,0.5-0.2l0.3,0.3c-0.1,0.2-0.4,0.3-0.8,0.3c-0.3,0-0.5-0.1-0.7-0.3
			S61,23.1,61,22.8z M62.3,22.3c-0.1-0.1-0.2-0.1-0.3-0.1s-0.2,0-0.3,0.1s-0.1,0.1-0.1,0.3h0.8C62.4,22.5,62.4,22.4,62.3,22.3z"/>
		<path class="st0" d="M64.6,21.8c0.1,0,0.2,0.1,0.3,0.2l-0.3,0.4c-0.1-0.1-0.2-0.2-0.3-0.2c-0.1,0-0.2,0-0.3,0.1c0,0.1,0,0.1,0,0.1
			s0.1,0.1,0.3,0.1s0.4,0.1,0.5,0.2S65,23,65,23.2s-0.1,0.3-0.2,0.4c-0.2,0.1-0.3,0.2-0.5,0.2s-0.4,0-0.5-0.1s-0.2-0.1-0.3-0.2
			l0.3-0.4c0.1,0.1,0.2,0.2,0.4,0.2c0.2,0,0.3,0,0.3-0.1s0.1-0.1,0-0.2c0-0.1-0.1-0.1-0.3-0.1c-0.2,0-0.3-0.1-0.5-0.2
			c-0.1-0.1-0.2-0.2-0.2-0.5c0-0.2,0.1-0.4,0.2-0.5c0.2-0.1,0.3-0.2,0.5-0.2C64.3,21.8,64.5,21.8,64.6,21.8z"/>
		<path class="st0" d="M67,23.4c-0.3-0.3-0.4-0.7-0.4-1.1s0.1-0.8,0.4-1.1s0.6-0.4,1.1-0.4c0.4,0,0.8,0.1,1.1,0.4l-0.4,0.4
			c-0.2-0.2-0.4-0.2-0.7-0.2c-0.3,0-0.5,0.1-0.7,0.3c-0.2,0.2-0.2,0.4-0.2,0.6c0,0.3,0.1,0.5,0.3,0.7c0.2,0.2,0.4,0.2,0.7,0.2
			c0.3,0,0.5-0.1,0.7-0.2l0.4,0.4c-0.3,0.3-0.7,0.4-1.1,0.4C67.7,23.8,67.3,23.7,67,23.4z"/>
		<path class="st0" d="M69.9,22c0.3-0.2,0.6-0.2,0.9-0.2c0.2,0,0.4,0.1,0.6,0.2c0.1,0.1,0.2,0.3,0.2,0.6v1.2H71v-0.2
			c-0.2,0.1-0.3,0.2-0.4,0.2c-0.3,0-0.5-0.1-0.6-0.2s-0.2-0.3-0.2-0.5s0.1-0.4,0.2-0.5s0.3-0.2,0.6-0.2c0.1,0,0.3,0,0.4,0.1v-0.1
			c0-0.1-0.1-0.2-0.3-0.2c-0.2,0-0.4,0-0.6,0.1L69.9,22z M71,23.2V23c-0.1-0.1-0.2-0.2-0.4-0.2c-0.2,0-0.4,0.1-0.4,0.3
			c0,0.2,0.1,0.2,0.4,0.3C70.8,23.4,70.9,23.3,71,23.2z"/>
		<path class="st0" d="M72.6,22.5v1.3H72v-2l0.6-0.1V22c0.1-0.1,0.3-0.2,0.5-0.2c0.3,0,0.5,0.1,0.6,0.2c0.1-0.2,0.4-0.2,0.7-0.2
			c0.3,0,0.5,0.1,0.6,0.2c0.1,0.2,0.2,0.3,0.2,0.5v1.3h-0.6v-1.1c0-0.1,0-0.2-0.1-0.3c-0.1-0.1-0.2-0.1-0.3-0.1
			c-0.1,0-0.2,0.1-0.3,0.2v0.1v1.2h-0.6v-1.1c0-0.1,0-0.2-0.1-0.3c-0.1-0.1-0.2-0.1-0.3-0.1C72.8,22.3,72.7,22.4,72.6,22.5z"/>
		<path class="st0" d="M75.6,24.7v-2.8l0.6-0.1V22c0.2-0.1,0.3-0.2,0.4-0.2c0.3,0,0.6,0.1,0.7,0.3c0.2,0.2,0.3,0.4,0.3,0.7
			c0,0.3-0.1,0.5-0.3,0.7c-0.2,0.2-0.4,0.3-0.7,0.3c-0.2,0-0.4-0.1-0.4-0.2v1L75.6,24.7z M76.2,22.6v0.3c0,0.2,0.2,0.4,0.4,0.4
			c0.3,0,0.5-0.2,0.5-0.5c0-0.4-0.2-0.6-0.5-0.6C76.4,22.3,76.2,22.4,76.2,22.6z"/>
	</g>
	<path class="st0" d="M2.9,18.3V0h1.2l11.5,11.5V0h3.7v18.3H18L6.6,7v11.3H2.9z"/>
	<path class="st0" d="M23.1,18.3V0h1.2l7.9,9l7.9-9h1.2v18.3h-3.7V7.7l-5.5,6.1l-5.5-6.1v10.6H23.1z"/>
	<path class="st0" d="M60,0v3.4h-6.1v14.9h-3.7V3.4h-6.1V0H60z"/>
	<path class="st0" d="M64.4,15.7c-1.8-1.7-2.6-3.9-2.6-6.6c0-2.6,0.9-4.7,2.6-6.5c1.8-1.7,4-2.6,6.5-2.6c2.6,0,4.9,0.8,6.7,2.4
		l-2.4,2.7c-1.2-1-2.7-1.5-4.3-1.5c-1.6,0-3,0.5-4,1.5S65.4,7.4,65.4,9c0,1.7,0.5,3.1,1.5,4.1s2.3,1.5,4,1.5c1.6,0,3.1-0.5,4.3-1.5
		l2.4,2.7c-1.9,1.6-4.1,2.4-6.7,2.4C68.4,18.3,66.2,17.4,64.4,15.7z"/>
	<g>
		<path class="st0" d="M69.7,7.5v3.4h-0.8V7.5H69.7z"/>
		<path class="st0" d="M71.3,10.9l-1.1-3.4H71l0.4,1.4c0.1,0.4,0.2,0.8,0.3,1.2l0,0c0.1-0.4,0.2-0.8,0.3-1.2l0.5-1.4h0.9l-1.2,3.4
			H71.3z"/>
		<path class="st0" d="M73.4,10.4c0-0.3,0.2-0.5,0.5-0.5s0.4,0.2,0.4,0.5s-0.2,0.4-0.5,0.4C73.6,10.9,73.4,10.7,73.4,10.4z"/>
		<path class="st0" d="M77.2,9.2c0,1-0.4,1.7-1.3,1.7s-1.3-0.8-1.3-1.7s0.4-1.7,1.3-1.7C76.9,7.5,77.2,8.3,77.2,9.2z M75.4,9.2
			c0,0.7,0.2,1.1,0.5,1.1s0.5-0.4,0.5-1.1c0-0.7-0.2-1.1-0.5-1.1C75.6,8.1,75.4,8.4,75.4,9.2z"/>
	</g>
</g>
</svg>
